<svg width="126" height="32" viewBox="0 0 126 32" fill="none" xmlns="http://www.w3.org/2000/svg">
<path d="M25.5224 23.7545C23.2227 28.3161 18.4963 31.4449 13.0391 31.4449C7.54611 31.4449 2.79351 28.2749 0.510822 23.6646C0.187556 23.0703 0.00390625 22.389 0.00390625 21.6648C0.00390625 19.35 1.88048 17.4734 4.19534 17.4734C1.88048 17.4734 0.00390625 15.5968 0.00390625 13.282C0.00390625 12.5578 0.187556 11.8765 0.510823 11.2822C2.79351 6.67187 7.54611 3.50195 13.0391 3.50195C18.4963 3.50195 23.2227 6.63075 25.5224 11.1924C25.8769 11.8075 26.0797 12.5211 26.0797 13.282C26.0797 15.5968 24.2031 17.4734 21.8882 17.4734C24.2031 17.4734 26.0797 19.35 26.0797 21.6648C26.0797 22.4258 25.8769 23.1393 25.5224 23.7545Z" fill="white"/>
<path d="M44.3481 8.34737C46.2649 8.34737 47.7937 9.00657 48.9344 10.325C50.0752 11.6434 50.6455 13.6256 50.6455 16.2718C50.6455 18.0203 50.3837 19.4883 49.8601 20.6758C49.3365 21.8632 48.5978 22.7609 47.6441 23.3686C46.6997 23.9764 45.5824 24.2803 44.292 24.2803C43.4785 24.2803 42.7632 24.1728 42.1461 23.9577C41.529 23.7427 41.0007 23.4528 40.5612 23.0881C40.1218 22.7235 39.7571 22.3261 39.4673 21.896H39.2989C39.327 22.2606 39.3597 22.7001 39.3971 23.2144C39.4439 23.7286 39.4673 24.1774 39.4673 24.5608V30.8723H37.125V8.62788H39.0465L39.355 10.9H39.4673C39.7665 10.4325 40.1311 10.0071 40.5612 9.62369C40.9914 9.23098 41.515 8.92241 42.1321 8.69801C42.7586 8.46425 43.4972 8.34737 44.3481 8.34737ZM43.9414 10.3109C42.8754 10.3109 42.0152 10.5166 41.3607 10.9281C40.7155 11.3395 40.2433 11.9566 39.9441 12.7794C39.6449 13.5929 39.486 14.6168 39.4673 15.851V16.2998C39.4673 17.5995 39.6075 18.6982 39.888 19.5958C40.1779 20.4934 40.6501 21.176 41.3046 21.6435C41.9685 22.111 42.8567 22.3448 43.9694 22.3448C44.9232 22.3448 45.7179 22.0876 46.3538 21.5734C46.9896 21.0591 47.4618 20.3438 47.7703 19.4275C48.0882 18.5018 48.2472 17.4405 48.2472 16.2437C48.2472 14.4297 47.8919 12.9898 47.1813 11.9239C46.48 10.8486 45.4 10.3109 43.9414 10.3109Z" fill="white"/>
<path d="M66.257 8.62788V23.9998H64.3495L64.0129 21.8399H63.8867C63.5688 22.3728 63.1574 22.8216 62.6525 23.1863C62.1475 23.551 61.5772 23.8221 60.9414 23.9998C60.3149 24.1868 59.6463 24.2803 58.9357 24.2803C57.7202 24.2803 56.701 24.0839 55.8782 23.6912C55.0553 23.2985 54.4335 22.6907 54.0128 21.8679C53.6014 21.0451 53.3957 19.9885 53.3957 18.6982V8.62788H55.7519V18.5299C55.7519 19.8108 56.0418 20.7693 56.6215 21.4051C57.2012 22.0315 58.0848 22.3448 59.2723 22.3448C60.4131 22.3448 61.32 22.1297 61.9933 21.6996C62.6758 21.2695 63.1667 20.6384 63.4659 19.8062C63.7651 18.9646 63.9148 17.9361 63.9148 16.7206V8.62788H66.257Z" fill="white"/>
<path d="M77.0157 8.34737C77.3242 8.34737 77.6468 8.36607 77.9834 8.40347C78.32 8.43152 78.6192 8.4736 78.881 8.5297L78.5865 10.6896C78.334 10.6242 78.0535 10.5727 77.745 10.5353C77.4364 10.4979 77.1466 10.4792 76.8754 10.4792C76.2583 10.4792 75.6739 10.6055 75.1222 10.8579C74.5799 11.101 74.103 11.4563 73.6916 11.9239C73.2802 12.382 72.9576 12.9384 72.7239 13.5929C72.4901 14.2381 72.3732 14.958 72.3732 15.7528V23.9998H70.031V8.62788H71.9665L72.2189 11.461H72.3171C72.635 10.8907 73.0184 10.3717 73.4672 9.9042C73.916 9.42733 74.435 9.04864 75.024 8.76814C75.6225 8.48763 76.2863 8.34737 77.0157 8.34737Z" fill="white"/>
<path d="M82.9636 8.62788V23.9998H80.6353V8.62788H82.9636ZM81.8275 2.87744C82.2109 2.87744 82.5381 3.00367 82.8093 3.25613C83.0898 3.49924 83.2301 3.8826 83.2301 4.40622C83.2301 4.92048 83.0898 5.30385 82.8093 5.5563C82.5381 5.80876 82.2109 5.93499 81.8275 5.93499C81.4254 5.93499 81.0888 5.80876 80.8177 5.5563C80.5559 5.30385 80.425 4.92048 80.425 4.40622C80.425 3.8826 80.5559 3.49924 80.8177 3.25613C81.0888 3.00367 81.4254 2.87744 81.8275 2.87744Z" fill="white"/>
<path d="M99.4446 8.62788V23.9998H97.5371L97.2005 21.8399H97.0743C96.7564 22.3728 96.345 22.8216 95.8401 23.1863C95.3351 23.551 94.7648 23.8221 94.129 23.9998C93.5025 24.1868 92.8339 24.2803 92.1233 24.2803C90.9078 24.2803 89.8886 24.0839 89.0658 23.6912C88.2429 23.2985 87.6211 22.6907 87.2004 21.8679C86.789 21.0451 86.5833 19.9885 86.5833 18.6982V8.62788H88.9395V18.5299C88.9395 19.8108 89.2294 20.7693 89.8091 21.4051C90.3888 22.0315 91.2724 22.3448 92.4599 22.3448C93.6007 22.3448 94.5076 22.1297 95.1809 21.6996C95.8634 21.2695 96.3543 20.6384 96.6535 19.8062C96.9528 18.9646 97.1024 17.9361 97.1024 16.7206V8.62788H99.4446Z" fill="white"/>
<path d="M119.909 8.34737C121.601 8.34737 122.878 8.79151 123.738 9.67979C124.598 10.5587 125.028 11.9753 125.028 13.9295V23.9998H122.728V14.0417C122.728 12.7981 122.457 11.8678 121.915 11.2506C121.382 10.6242 120.587 10.3109 119.53 10.3109C118.043 10.3109 116.964 10.7411 116.29 11.6013C115.617 12.4615 115.28 13.7285 115.28 15.4022V23.9998H112.966V14.0417C112.966 13.2095 112.845 12.5176 112.602 11.9659C112.368 11.4143 112.013 11.0029 111.536 10.7317C111.068 10.4512 110.474 10.3109 109.754 10.3109C108.735 10.3109 107.917 10.5213 107.3 10.9421C106.683 11.3628 106.234 11.9893 105.954 12.8215C105.682 13.6443 105.547 14.6588 105.547 15.865V23.9998H103.219V8.62788H105.098L105.449 10.8018H105.575C105.883 10.2689 106.271 9.82004 106.739 9.45538C107.206 9.09072 107.73 8.81489 108.31 8.62788C108.89 8.44087 109.507 8.34737 110.161 8.34737C111.33 8.34737 112.307 8.5671 113.093 9.00657C113.887 9.43668 114.462 10.0959 114.818 10.9842H114.944C115.449 10.0959 116.141 9.43668 117.02 9.00657C117.899 8.5671 118.862 8.34737 119.909 8.34737Z" fill="white"/>
</svg>
