<svg width="36" height="35" viewBox="0 0 36 35" fill="none" xmlns="http://www.w3.org/2000/svg">
<path d="M17.5951 2.9165C9.54505 2.9165 3.01172 9.44984 3.01172 17.4998C3.01172 25.5498 9.54505 32.0832 17.5951 32.0832C25.6451 32.0832 32.1784 25.5498 32.1784 17.4998C32.1784 9.44984 25.6451 2.9165 17.5951 2.9165ZM24.3617 12.8332C24.143 15.1373 23.1951 20.7373 22.7138 23.3186C22.5096 24.4123 22.1013 24.7769 21.7221 24.8207C20.8763 24.8936 20.2346 24.2665 19.418 23.7269C18.1346 22.8811 17.4055 22.3561 16.1659 21.5394C14.7221 20.5915 15.6555 20.0665 16.4867 19.2207C16.7055 19.0019 20.4388 15.604 20.5117 15.2978C20.5218 15.2514 20.5205 15.2032 20.5078 15.1575C20.4951 15.1117 20.4714 15.0698 20.4388 15.0353C20.3513 14.9623 20.2346 14.9915 20.1326 15.0061C20.0013 15.0353 17.9596 16.3915 13.9784 19.0748C13.3951 19.4686 12.8701 19.6728 12.4034 19.6582C11.8784 19.6436 10.8867 19.3665 10.143 19.1186C9.22422 18.8269 8.50964 18.6665 8.56797 18.1561C8.59714 17.8936 8.96172 17.6311 9.64714 17.354C13.9055 15.5019 16.7346 14.2769 18.1492 13.6936C22.2034 12.0019 23.0346 11.7103 23.5888 11.7103C23.7055 11.7103 23.9826 11.7394 24.1576 11.8853C24.3034 12.0019 24.3471 12.1623 24.3617 12.279C24.3471 12.3665 24.3763 12.629 24.3617 12.8332Z" fill="#016DFF"/>
</svg>
