<svg width="37" height="35" viewBox="0 0 37 35" fill="none" xmlns="http://www.w3.org/2000/svg">
<path d="M19.5938 3.09912C21.2857 3.10352 22.1444 3.11232 22.8858 3.13285L23.1776 3.14312C23.5144 3.15485 23.8468 3.16952 24.2483 3.18712C25.8485 3.26045 26.9403 3.50685 27.8983 3.86912C28.8909 4.24165 29.7271 4.74619 30.5633 5.56019C31.328 6.29337 31.9197 7.18025 32.2973 8.15912C32.6687 9.09339 32.9214 10.1582 32.9966 11.7202C33.0146 12.1103 33.0297 12.4345 33.0417 12.7645L33.0507 13.049C33.0733 13.7706 33.0823 14.6081 33.0853 16.2581L33.0868 17.3522V19.2735C33.0905 20.3433 33.079 21.4131 33.0522 22.4826L33.0432 22.7671C33.0312 23.0971 33.0161 23.4213 32.9981 23.8114C32.9229 25.3734 32.6672 26.4367 32.2973 27.3725C31.9208 28.3519 31.3289 29.239 30.5633 29.9714C29.8112 30.7169 28.9019 31.294 27.8983 31.6625C26.9403 32.0247 25.8485 32.2711 24.2483 32.3445C23.8915 32.3608 23.5346 32.3755 23.1776 32.3885L22.8858 32.3973C22.1444 32.4178 21.2857 32.4281 19.5938 32.431L18.4718 32.4325H16.5032C15.4058 32.4361 14.3083 32.4249 13.2112 32.3987L12.9194 32.3899C12.5624 32.3767 12.2055 32.3616 11.8486 32.3445C10.2485 32.2711 9.15665 32.0247 8.19716 31.6625C7.19355 31.2949 6.28451 30.7177 5.53374 29.9714C4.76832 29.2385 4.17605 28.3515 3.79823 27.3725C3.42677 26.4382 3.17411 25.3734 3.09891 23.8114C3.08216 23.4634 3.06712 23.1153 3.0538 22.7671L3.04628 22.4826C3.01856 21.4131 3.00603 20.3433 3.00868 19.2735V16.2581C3.00448 15.1883 3.01551 14.1185 3.04177 13.049L3.05229 12.7645C3.06432 12.4345 3.07936 12.1103 3.09741 11.7202C3.17261 10.1582 3.42526 9.09485 3.79673 8.15912C4.17438 7.17925 4.76783 6.29209 5.53524 5.56019C6.28583 4.81435 7.19427 4.23724 8.19716 3.86912C9.15665 3.50685 10.247 3.26045 11.8486 3.18712C12.2487 3.16952 12.5825 3.15485 12.9194 3.14312L13.2112 3.13432C14.3078 3.10826 15.4048 3.09702 16.5017 3.10059L19.5938 3.09912ZM18.0477 10.4325C16.0534 10.4325 14.1408 11.2051 12.7306 12.5803C11.3204 13.9556 10.5282 15.8209 10.5282 17.7658C10.5282 19.7107 11.3204 21.576 12.7306 22.9512C14.1408 24.3265 16.0534 25.0991 18.0477 25.0991C20.042 25.0991 21.9547 24.3265 23.3649 22.9512C24.775 21.576 25.5673 19.7107 25.5673 17.7658C25.5673 15.8209 24.775 13.9556 23.3649 12.5803C21.9547 11.2051 20.042 10.4325 18.0477 10.4325ZM18.0477 13.3658C18.6402 13.3657 19.2269 13.4794 19.7744 13.7004C20.3218 13.9215 20.8192 14.2455 21.2382 14.654C21.6573 15.0625 21.9897 15.5475 22.2165 16.0813C22.4433 16.6151 22.5601 17.1872 22.5602 17.7651C22.5603 18.3429 22.4437 18.915 22.2171 19.4489C21.9904 19.9828 21.6582 20.4679 21.2393 20.8765C20.8204 21.2852 20.3231 21.6094 19.7757 21.8306C19.2284 22.0518 18.6417 22.1657 18.0492 22.1658C16.8527 22.1658 15.7051 21.7022 14.859 20.8771C14.0129 20.0519 13.5375 18.9327 13.5375 17.7658C13.5375 16.5988 14.0129 15.4797 14.859 14.6545C15.7051 13.8294 16.8527 13.3658 18.0492 13.3658M25.9448 8.23245C25.4462 8.23245 24.968 8.42561 24.6155 8.76943C24.2629 9.11324 24.0649 9.57956 24.0649 10.0658C24.0649 10.552 24.2629 11.0183 24.6155 11.3622C24.968 11.706 25.4462 11.8991 25.9448 11.8991C26.4433 11.8991 26.9215 11.706 27.274 11.3622C27.6266 11.0183 27.8246 10.552 27.8246 10.0658C27.8246 9.57956 27.6266 9.11324 27.274 8.76943C26.9215 8.42561 26.4433 8.23245 25.9448 8.23245Z" fill="white"/>
</svg>
