<svg width="36" height="35" viewBox="0 0 36 35" fill="none" xmlns="http://www.w3.org/2000/svg">
<path d="M6.37953 6.60463C4.51953 8.48235 4.51953 11.4849 4.51953 17.4989V18.5618C4.51953 24.5669 4.51953 27.5695 6.37953 29.4561C8.25725 31.3161 11.2598 31.3161 17.2738 31.3161H18.3367C24.3418 31.3161 27.3444 31.3161 29.231 29.4561C31.091 27.5784 31.091 24.5758 31.091 18.5618V17.4989C31.091 11.4938 31.091 8.49121 29.231 6.60463C27.3533 4.74463 24.3507 4.74463 18.3367 4.74463H17.2738C11.2687 4.74463 8.26611 4.74463 6.37953 6.60463ZM9.00125 12.8312H12.0481C12.1455 17.8975 14.3775 20.0409 16.149 20.4838V12.8312H19.0098V17.1978C20.7547 17.0118 22.597 15.0189 23.217 12.8224H26.069C25.8365 13.9594 25.372 15.0364 24.7045 15.9858C24.037 16.9352 23.1809 17.7368 22.1896 18.3404C23.2959 18.8908 24.2729 19.6696 25.0561 20.6253C25.8393 21.5811 26.411 22.6921 26.7333 23.8849H23.589C22.9158 21.7858 21.233 20.1561 19.0098 19.9347V23.8849H18.6556C12.5973 23.8849 9.14297 19.7398 9.00125 12.8312Z" fill="white"/>
</svg>
