<svg width="126" height="32" viewBox="0 0 126 32" fill="none" xmlns="http://www.w3.org/2000/svg">
<path d="M25.5224 23.7545C23.2227 28.3161 18.4963 31.4449 13.0391 31.4449C7.54611 31.4449 2.79351 28.2749 0.510822 23.6646C0.187556 23.0703 0.00390625 22.389 0.00390625 21.6648C0.00390625 19.35 1.88048 17.4734 4.19534 17.4734C1.88048 17.4734 0.00390625 15.5968 0.00390625 13.282C0.00390625 12.5578 0.187556 11.8765 0.510823 11.2822C2.79351 6.67187 7.54611 3.50195 13.0391 3.50195C18.4963 3.50195 23.2227 6.63075 25.5224 11.1924C25.8769 11.8075 26.0797 12.5211 26.0797 13.282C26.0797 15.5968 24.2031 17.4734 21.8882 17.4734C24.2031 17.4734 26.0797 19.35 26.0797 21.6648C26.0797 22.4258 25.8769 23.1393 25.5224 23.7545Z" fill="white"/>
<path d="M44.3501 8.34762C46.2669 8.34762 47.7957 9.00681 48.9364 10.3252C50.0771 11.6436 50.6475 13.6259 50.6475 16.272C50.6475 18.0205 50.3857 19.4885 49.8621 20.676C49.3385 21.8635 48.5998 22.7611 47.646 23.3689C46.7017 23.9767 45.5843 24.2805 44.294 24.2805C43.4805 24.2805 42.7652 24.173 42.1481 23.958C41.5309 23.7429 41.0027 23.453 40.5632 23.0884C40.1237 22.7237 39.7591 22.3263 39.4692 21.8962H39.3009C39.329 22.2609 39.3617 22.7003 39.3991 23.2146C39.4458 23.7289 39.4692 24.1777 39.4692 24.561V30.8725H37.127V8.62812H39.0484L39.357 10.9002H39.4692C39.7684 10.4327 40.1331 10.0073 40.5632 9.62393C40.9933 9.23122 41.5169 8.92266 42.134 8.69825C42.7605 8.46449 43.4992 8.34762 44.3501 8.34762ZM43.9433 10.3112C42.8774 10.3112 42.0172 10.5169 41.3626 10.9283C40.7175 11.3397 40.2453 11.9568 39.9461 12.7797C39.6469 13.5931 39.4879 14.617 39.4692 15.8512V16.3001C39.4692 17.5997 39.6095 18.6984 39.89 19.596C40.1798 20.4937 40.652 21.1762 41.3065 21.6438C41.9704 22.1113 42.8587 22.345 43.9714 22.345C44.9251 22.345 45.7199 22.0879 46.3557 21.5736C46.9915 21.0594 47.4637 20.3441 47.7723 19.4277C48.0902 18.502 48.2491 17.4408 48.2491 16.2439C48.2491 14.43 47.8938 12.99 47.1832 11.9241C46.4819 10.8488 45.402 10.3112 43.9433 10.3112Z" fill="white"/>
<path d="M66.259 8.62812V24H64.3515L64.0149 21.8401H63.8887C63.5707 22.3731 63.1593 22.8219 62.6544 23.1866C62.1495 23.5512 61.5791 23.8224 60.9433 24C60.3168 24.187 59.6483 24.2805 58.9377 24.2805C57.7221 24.2805 56.7029 24.0842 55.8801 23.6915C55.0573 23.2988 54.4355 22.691 54.0147 21.8682C53.6033 21.0453 53.3976 19.9887 53.3976 18.6984V8.62812H55.7539V18.5301C55.7539 19.8111 56.0437 20.7695 56.6235 21.4053C57.2032 22.0318 58.0868 22.345 59.2743 22.345C60.415 22.345 61.322 22.13 61.9952 21.6999C62.6778 21.2697 63.1687 20.6386 63.4679 19.8064C63.7671 18.9649 63.9167 17.9364 63.9167 16.7208V8.62812H66.259Z" fill="white"/>
<path d="M77.0176 8.34762C77.3262 8.34762 77.6488 8.36632 77.9854 8.40372C78.322 8.43177 78.6212 8.47384 78.883 8.52995L78.5885 10.6899C78.336 10.6244 78.0555 10.573 77.7469 10.5356C77.4384 10.4982 77.1485 10.4795 76.8774 10.4795C76.2602 10.4795 75.6758 10.6057 75.1242 10.8582C74.5819 11.1013 74.105 11.4566 73.6936 11.9241C73.2822 12.3823 72.9596 12.9386 72.7258 13.5931C72.4921 14.2383 72.3752 14.9583 72.3752 15.7531V24H70.0329V8.62812H71.9684L72.2209 11.4613H72.3191C72.637 10.8909 73.0204 10.372 73.4692 9.90444C73.918 9.42758 74.4369 9.04889 75.026 8.76838C75.6244 8.48787 76.2883 8.34762 77.0176 8.34762Z" fill="white"/>
<path d="M82.9655 8.62812V24H80.6373V8.62812H82.9655ZM81.8295 2.87769C82.2128 2.87769 82.5401 3.00391 82.8112 3.25637C83.0918 3.49948 83.232 3.88284 83.232 4.40646C83.232 4.92073 83.0918 5.30409 82.8112 5.55655C82.5401 5.80901 82.2128 5.93524 81.8295 5.93524C81.4274 5.93524 81.0908 5.80901 80.8196 5.55655C80.5578 5.30409 80.4269 4.92073 80.4269 4.40646C80.4269 3.88284 80.5578 3.49948 80.8196 3.25637C81.0908 3.00391 81.4274 2.87769 81.8295 2.87769Z" fill="white"/>
<path d="M99.4466 8.62812V24H97.5391L97.2025 21.8401H97.0763C96.7583 22.3731 96.3469 22.8219 95.842 23.1866C95.3371 23.5512 94.7667 23.8224 94.1309 24C93.5044 24.187 92.8359 24.2805 92.1253 24.2805C90.9097 24.2805 89.8905 24.0842 89.0677 23.6915C88.2449 23.2988 87.6231 22.691 87.2023 21.8682C86.7909 21.0453 86.5852 19.9887 86.5852 18.6984V8.62812H88.9415V18.5301C88.9415 19.8111 89.2314 20.7695 89.8111 21.4053C90.3908 22.0318 91.2744 22.345 92.4619 22.345C93.6026 22.345 94.5096 22.13 95.1828 21.6999C95.8654 21.2697 96.3563 20.6386 96.6555 19.8064C96.9547 18.9649 97.1043 17.9364 97.1043 16.7208V8.62812H99.4466Z" fill="white"/>
<path d="M119.911 8.34762C121.603 8.34762 122.88 8.79175 123.74 9.68003C124.6 10.559 125.03 11.9755 125.03 13.9297V24H122.73V14.042C122.73 12.7984 122.459 11.868 121.916 11.2509C121.384 10.6244 120.589 10.3112 119.532 10.3112C118.045 10.3112 116.965 10.7413 116.292 11.6015C115.619 12.4618 115.282 13.7287 115.282 15.4024V24H112.968V14.042C112.968 13.2098 112.847 12.5179 112.604 11.9662C112.37 11.4145 112.015 11.0031 111.538 10.7319C111.07 10.4514 110.476 10.3112 109.756 10.3112C108.737 10.3112 107.919 10.5216 107.302 10.9423C106.685 11.3631 106.236 11.9896 105.955 12.8217C105.684 13.6446 105.549 14.6591 105.549 15.8653V24H103.221V8.62812H105.1L105.451 10.8021H105.577C105.885 10.2691 106.273 9.82029 106.741 9.45563C107.208 9.09096 107.732 8.81513 108.312 8.62812C108.891 8.44112 109.509 8.34762 110.163 8.34762C111.332 8.34762 112.309 8.56735 113.094 9.00681C113.889 9.43693 114.464 10.0961 114.82 10.9844H114.946C115.451 10.0961 116.143 9.43693 117.022 9.00681C117.901 8.56735 118.864 8.34762 119.911 8.34762Z" fill="white"/>
</svg>
