<svg width="173" height="42" viewBox="0 0 173 42" fill="none" xmlns="http://www.w3.org/2000/svg">
<path d="M8.11414 12.9141C12.5954 12.9141 18 19.0005 18 20.9141C18 22.8276 12.5954 28.9141 8.11414 28.9141C3.63282 28.9141 0 25.3323 0 20.9141C0 16.4958 3.63282 12.9141 8.11414 12.9141Z" fill="url(#paint0_radial_376_8159)"/>
<path d="M32.0118 28.9141C27.5935 28.9141 22.265 22.8276 22.265 20.9141C22.265 19.0005 27.5935 12.9141 32.0118 12.9141C36.43 12.9141 40.0117 16.4958 40.0117 20.9141C40.0117 25.3323 36.43 28.9141 32.0118 28.9141Z" fill="url(#paint1_radial_376_8159)"/>
<path d="M27.9219 8.64653C27.9219 13.0648 21.8354 18.3934 19.9219 18.3934C18.0083 18.3934 11.9219 13.0648 11.9219 8.64653C11.9219 4.22823 15.5036 0.646484 19.9219 0.646484C24.3402 0.646484 27.9219 4.22823 27.9219 8.64653Z" fill="url(#paint2_radial_376_8159)"/>
<path d="M11.9219 33.6269C11.9219 29.2086 18.0083 23.88 19.9219 23.88C21.8354 23.88 27.9219 29.2086 27.9219 33.6269C27.9219 38.0452 24.3402 41.627 19.9219 41.627C15.5036 41.627 11.9219 38.0452 11.9219 33.6269Z" fill="url(#paint3_radial_376_8159)"/>
<path d="M41.1259 12.9141C45.6072 12.9141 51.0117 19.0005 51.0117 20.9141C51.0117 22.8276 45.6072 28.9141 41.1259 28.9141C36.6445 28.9141 33.0117 25.3323 33.0117 20.9141C33.0117 16.4958 36.6445 12.9141 41.1259 12.9141Z" fill="url(#paint4_radial_376_8159)"/>
<path d="M65.0235 28.9141C60.6052 28.9141 55.2767 22.8276 55.2767 20.9141C55.2767 19.0005 60.6052 12.9141 65.0235 12.9141C69.4417 12.9141 73.0234 16.4958 73.0234 20.9141C73.0234 25.3323 69.4417 28.9141 65.0235 28.9141Z" fill="url(#paint5_radial_376_8159)"/>
<path d="M60.9336 8.64653C60.9336 13.0648 54.8471 18.3934 52.9336 18.3934C51.0201 18.3934 44.9336 13.0648 44.9336 8.64653C44.9336 4.22823 48.5153 0.646484 52.9336 0.646484C57.3519 0.646484 60.9336 4.22823 60.9336 8.64653Z" fill="url(#paint6_radial_376_8159)"/>
<path d="M44.9336 33.6269C44.9336 29.2086 51.0201 23.88 52.9336 23.88C54.8471 23.88 60.9336 29.2086 60.9336 33.6269C60.9336 38.0452 57.3519 41.627 52.9336 41.627C48.5153 41.627 44.9336 38.0452 44.9336 33.6269Z" fill="url(#paint7_radial_376_8159)"/>
<path d="M74.1376 12.9141C78.6189 12.9141 84.0234 19.0005 84.0234 20.9141C84.0234 22.8276 78.6189 28.9141 74.1376 28.9141C69.6563 28.9141 66.0234 25.3323 66.0234 20.9141C66.0234 16.4958 69.6563 12.9141 74.1376 12.9141Z" fill="url(#paint8_radial_376_8159)"/>
<path d="M98.0352 28.9141C93.617 28.9141 88.2885 22.8276 88.2885 20.9141C88.2885 19.0005 93.617 12.9141 98.0352 12.9141C102.453 12.9141 106.035 16.4958 106.035 20.9141C106.035 25.3323 102.453 28.9141 98.0352 28.9141Z" fill="url(#paint9_radial_376_8159)"/>
<path d="M93.9453 8.64653C93.9453 13.0648 87.8589 18.3934 85.9453 18.3934C84.0318 18.3934 77.9453 13.0648 77.9453 8.64653C77.9453 4.22823 81.527 0.646484 85.9453 0.646484C90.3636 0.646484 93.9453 4.22823 93.9453 8.64653Z" fill="url(#paint10_radial_376_8159)"/>
<path d="M77.9453 33.6269C77.9453 29.2086 84.0318 23.88 85.9453 23.88C87.8589 23.88 93.9453 29.2086 93.9453 33.6269C93.9453 38.0452 90.3636 41.627 85.9453 41.627C81.527 41.627 77.9453 38.0452 77.9453 33.6269Z" fill="url(#paint11_radial_376_8159)"/>
<path d="M107.149 12.9141C111.631 12.9141 117.035 19.0005 117.035 20.9141C117.035 22.8276 111.631 28.9141 107.149 28.9141C102.668 28.9141 99.0352 25.3323 99.0352 20.9141C99.0352 16.4958 102.668 12.9141 107.149 12.9141Z" fill="url(#paint12_radial_376_8159)"/>
<path d="M131.047 28.9141C126.629 28.9141 121.3 22.8276 121.3 20.9141C121.3 19.0005 126.629 12.9141 131.047 12.9141C135.465 12.9141 139.047 16.4958 139.047 20.9141C139.047 25.3323 135.465 28.9141 131.047 28.9141Z" fill="url(#paint13_radial_376_8159)"/>
<path d="M126.957 8.64653C126.957 13.0648 120.871 18.3934 118.957 18.3934C117.043 18.3934 110.957 13.0648 110.957 8.64653C110.957 4.22823 114.539 0.646484 118.957 0.646484C123.375 0.646484 126.957 4.22823 126.957 8.64653Z" fill="url(#paint14_radial_376_8159)"/>
<path d="M110.957 33.6269C110.957 29.2086 117.043 23.88 118.957 23.88C120.871 23.88 126.957 29.2086 126.957 33.6269C126.957 38.0452 123.375 41.627 118.957 41.627C114.539 41.627 110.957 38.0452 110.957 33.6269Z" fill="url(#paint15_radial_376_8159)"/>
<path d="M140.161 12.9141C144.642 12.9141 150.047 19.0005 150.047 20.9141C150.047 22.8276 144.642 28.9141 140.161 28.9141C135.68 28.9141 132.047 25.3323 132.047 20.9141C132.047 16.4958 135.68 12.9141 140.161 12.9141Z" fill="url(#paint16_radial_376_8159)"/>
<path d="M164.059 28.9141C159.64 28.9141 154.312 22.8276 154.312 20.9141C154.312 19.0005 159.64 12.9141 164.059 12.9141C168.477 12.9141 172.059 16.4958 172.059 20.9141C172.059 25.3323 168.477 28.9141 164.059 28.9141Z" fill="url(#paint17_radial_376_8159)"/>
<path d="M159.969 8.64653C159.969 13.0648 153.882 18.3934 151.969 18.3934C150.055 18.3934 143.969 13.0648 143.969 8.64653C143.969 4.22823 147.55 0.646484 151.969 0.646484C156.387 0.646484 159.969 4.22823 159.969 8.64653Z" fill="url(#paint18_radial_376_8159)"/>
<path d="M143.969 33.6269C143.969 29.2086 150.055 23.88 151.969 23.88C153.882 23.88 159.969 29.2086 159.969 33.6269C159.969 38.0452 156.387 41.627 151.969 41.627C147.55 41.627 143.969 38.0452 143.969 33.6269Z" fill="url(#paint19_radial_376_8159)"/>
<defs>
<radialGradient id="paint0_radial_376_8159" cx="0" cy="0" r="1" gradientUnits="userSpaceOnUse" gradientTransform="translate(15.5838 20.6389) rotate(180) scale(14.258 14.0574)">
<stop stop-color="#0029FF"/>
<stop offset="1" stop-color="#00A3FF" stop-opacity="0"/>
</radialGradient>
<radialGradient id="paint1_radial_376_8159" cx="0" cy="0" r="1" gradientUnits="userSpaceOnUse" gradientTransform="translate(24.6472 21.1892) scale(14.0574 14.0574)">
<stop stop-color="#0029FF"/>
<stop offset="1" stop-color="#00A3FF" stop-opacity="0"/>
</radialGradient>
<radialGradient id="paint2_radial_376_8159" cx="0" cy="0" r="1" gradientUnits="userSpaceOnUse" gradientTransform="translate(20.197 16.0112) rotate(-90) scale(14.0575 14.0574)">
<stop stop-color="#0029FF"/>
<stop offset="1" stop-color="#00A3FF" stop-opacity="0"/>
</radialGradient>
<radialGradient id="paint3_radial_376_8159" cx="0" cy="0" r="1" gradientUnits="userSpaceOnUse" gradientTransform="translate(19.6467 26.2622) rotate(90) scale(14.0575 14.0574)">
<stop stop-color="#0029FF"/>
<stop offset="1" stop-color="#00A3FF" stop-opacity="0"/>
</radialGradient>
<radialGradient id="paint4_radial_376_8159" cx="0" cy="0" r="1" gradientUnits="userSpaceOnUse" gradientTransform="translate(48.5955 20.6389) rotate(180) scale(14.258 14.0574)">
<stop stop-color="#0029FF"/>
<stop offset="1" stop-color="#00A3FF" stop-opacity="0"/>
</radialGradient>
<radialGradient id="paint5_radial_376_8159" cx="0" cy="0" r="1" gradientUnits="userSpaceOnUse" gradientTransform="translate(57.6589 21.1892) scale(14.0574 14.0574)">
<stop stop-color="#0029FF"/>
<stop offset="1" stop-color="#00A3FF" stop-opacity="0"/>
</radialGradient>
<radialGradient id="paint6_radial_376_8159" cx="0" cy="0" r="1" gradientUnits="userSpaceOnUse" gradientTransform="translate(53.2087 16.0112) rotate(-90) scale(14.0575 14.0574)">
<stop stop-color="#0029FF"/>
<stop offset="1" stop-color="#00A3FF" stop-opacity="0"/>
</radialGradient>
<radialGradient id="paint7_radial_376_8159" cx="0" cy="0" r="1" gradientUnits="userSpaceOnUse" gradientTransform="translate(52.6585 26.2622) rotate(90) scale(14.0575 14.0574)">
<stop stop-color="#0029FF"/>
<stop offset="1" stop-color="#00A3FF" stop-opacity="0"/>
</radialGradient>
<radialGradient id="paint8_radial_376_8159" cx="0" cy="0" r="1" gradientUnits="userSpaceOnUse" gradientTransform="translate(81.6073 20.6389) rotate(180) scale(14.258 14.0574)">
<stop stop-color="#0029FF"/>
<stop offset="1" stop-color="#00A3FF" stop-opacity="0"/>
</radialGradient>
<radialGradient id="paint9_radial_376_8159" cx="0" cy="0" r="1" gradientUnits="userSpaceOnUse" gradientTransform="translate(90.6706 21.1892) scale(14.0574 14.0574)">
<stop stop-color="#0029FF"/>
<stop offset="1" stop-color="#00A3FF" stop-opacity="0"/>
</radialGradient>
<radialGradient id="paint10_radial_376_8159" cx="0" cy="0" r="1" gradientUnits="userSpaceOnUse" gradientTransform="translate(86.2204 16.0112) rotate(-90) scale(14.0575 14.0574)">
<stop stop-color="#0029FF"/>
<stop offset="1" stop-color="#00A3FF" stop-opacity="0"/>
</radialGradient>
<radialGradient id="paint11_radial_376_8159" cx="0" cy="0" r="1" gradientUnits="userSpaceOnUse" gradientTransform="translate(85.6702 26.2622) rotate(90) scale(14.0575 14.0574)">
<stop stop-color="#0029FF"/>
<stop offset="1" stop-color="#00A3FF" stop-opacity="0"/>
</radialGradient>
<radialGradient id="paint12_radial_376_8159" cx="0" cy="0" r="1" gradientUnits="userSpaceOnUse" gradientTransform="translate(114.619 20.6389) rotate(180) scale(14.258 14.0574)">
<stop stop-color="#0029FF"/>
<stop offset="1" stop-color="#00A3FF" stop-opacity="0"/>
</radialGradient>
<radialGradient id="paint13_radial_376_8159" cx="0" cy="0" r="1" gradientUnits="userSpaceOnUse" gradientTransform="translate(123.682 21.1892) scale(14.0574 14.0574)">
<stop stop-color="#0029FF"/>
<stop offset="1" stop-color="#00A3FF" stop-opacity="0"/>
</radialGradient>
<radialGradient id="paint14_radial_376_8159" cx="0" cy="0" r="1" gradientUnits="userSpaceOnUse" gradientTransform="translate(119.232 16.0112) rotate(-90) scale(14.0575 14.0574)">
<stop stop-color="#0029FF"/>
<stop offset="1" stop-color="#00A3FF" stop-opacity="0"/>
</radialGradient>
<radialGradient id="paint15_radial_376_8159" cx="0" cy="0" r="1" gradientUnits="userSpaceOnUse" gradientTransform="translate(118.682 26.2622) rotate(90) scale(14.0575 14.0574)">
<stop stop-color="#0029FF"/>
<stop offset="1" stop-color="#00A3FF" stop-opacity="0"/>
</radialGradient>
<radialGradient id="paint16_radial_376_8159" cx="0" cy="0" r="1" gradientUnits="userSpaceOnUse" gradientTransform="translate(147.631 20.6389) rotate(180) scale(14.258 14.0574)">
<stop stop-color="#0029FF"/>
<stop offset="1" stop-color="#00A3FF" stop-opacity="0"/>
</radialGradient>
<radialGradient id="paint17_radial_376_8159" cx="0" cy="0" r="1" gradientUnits="userSpaceOnUse" gradientTransform="translate(156.694 21.1892) scale(14.0574 14.0574)">
<stop stop-color="#0029FF"/>
<stop offset="1" stop-color="#00A3FF" stop-opacity="0"/>
</radialGradient>
<radialGradient id="paint18_radial_376_8159" cx="0" cy="0" r="1" gradientUnits="userSpaceOnUse" gradientTransform="translate(152.244 16.0112) rotate(-90) scale(14.0575 14.0574)">
<stop stop-color="#0029FF"/>
<stop offset="1" stop-color="#00A3FF" stop-opacity="0"/>
</radialGradient>
<radialGradient id="paint19_radial_376_8159" cx="0" cy="0" r="1" gradientUnits="userSpaceOnUse" gradientTransform="translate(151.694 26.2622) rotate(90) scale(14.0575 14.0574)">
<stop stop-color="#0029FF"/>
<stop offset="1" stop-color="#00A3FF" stop-opacity="0"/>
</radialGradient>
</defs>
</svg>
