<svg width="100" height="100" viewBox="0 0 100 100" fill="none" xmlns="http://www.w3.org/2000/svg">
<g clip-path="url(#clip0_1_319)">
<path d="M15.7579 91.9455C40.8997 107.541 73.9241 99.8027 89.5199 74.6609C105.116 49.5191 97.3771 16.4948 72.2353 0.899008C66.6159 -2.5868 61.6087 4.76556 63.9781 10.9392C69.7771 26.0484 68.6887 43.5982 59.4997 58.4117C50.3106 73.2253 35.0711 81.9972 18.9583 83.5142C14.4059 83.9428 11.8722 89.5351 15.7579 91.9455Z" fill="#016DFF"/>
<path d="M19.421 27.8722C14.0485 32.0698 5.70174 30.9097 5.70313 24.0918C5.70452 17.274 14.0518 16.1172 19.4226 20.317L24.2547 24.0955L19.421 27.8722Z" fill="#016DFF"/>
<path d="M20.3173 19.42C16.1197 14.0475 17.2798 5.70076 24.0976 5.70215C30.9155 5.70354 32.0722 14.0508 27.8724 19.4216L24.094 24.2537L20.3173 19.42Z" fill="#016DFF"/>
<path d="M28.1708 20.3144C33.5433 16.1168 41.8901 17.2768 41.8887 24.0947C41.8873 30.9126 33.54 32.0693 28.1692 27.8695L23.3371 24.091L28.1708 20.3144Z" fill="#016DFF"/>
<path d="M27.8702 28.1723C32.0678 33.5448 30.9077 41.8915 24.0899 41.8901C17.272 41.8887 16.1153 33.5414 20.3151 28.1706L24.0935 23.3386L27.8702 28.1723Z" fill="#016DFF"/>
</g>
<defs>
<clipPath id="clip0_1_319">
<rect width="100" height="100" fill="white"/>
</clipPath>
</defs>
</svg>
