<svg width="100" height="100" viewBox="0 0 100 100" fill="none" xmlns="http://www.w3.org/2000/svg">
<g clip-path="url(#clip0_1_139)">
<path d="M3.45531 26.2754C3.4553 14.3646 18.08 9.71184e-06 22.6778 9.30988e-06C27.2757 8.90792e-06 41.9004 14.3646 41.9004 26.2754C41.9004 38.1862 33.2942 47.8418 22.6778 47.8418C12.0615 47.8418 3.45531 38.1862 3.45531 26.2754Z" fill="#016DFF"/>
<path d="M58.4592 26.2754C58.4592 14.3646 73.0839 9.71184e-06 77.6818 9.30988e-06C82.2796 8.90792e-06 96.9043 14.3646 96.9043 26.2754C96.9043 38.1862 88.2981 47.8418 77.6818 47.8418C67.0654 47.8418 58.4592 38.1862 58.4592 26.2754Z" fill="#016DFF"/>
<path d="M92.1451 62.4454C99.8228 69.1194 100.725 80.9949 92.3667 86.7932C88.6053 89.4024 84.5993 91.6648 80.3964 93.5448C70.5653 97.9426 59.8932 100.143 49.1243 99.9928C38.3554 99.8425 27.7488 97.3451 18.0441 92.6747C13.8952 90.6781 9.95382 88.3049 6.26667 85.5917C-1.92699 79.5624 -0.693806 67.7167 7.1669 61.2595L8.90294 59.8335C15.8049 54.1639 25.9702 55.6063 34.0188 59.4796C38.8958 61.8267 44.226 63.0817 49.6378 63.1572C55.0496 63.2327 60.4127 62.1269 65.3533 59.9169C73.5067 56.2696 83.7083 55.1115 90.4495 60.9714L92.1451 62.4454Z" fill="#016DFF"/>
</g>
<defs>
<clipPath id="clip0_1_139">
<rect width="100" height="100" fill="white"/>
</clipPath>
</defs>
</svg>
