<svg width="100" height="100" viewBox="0 0 100 100" fill="none" xmlns="http://www.w3.org/2000/svg">
<g clip-path="url(#clip0_1_679)">
<path d="M57.1476 56.6272C57.1476 44.706 72.0171 30.3288 76.692 30.3288C81.3669 30.3288 96.2363 44.706 96.2363 56.6272C96.2363 68.5484 87.486 78.2124 76.692 78.2124C65.8979 78.2124 57.1476 68.5484 57.1476 56.6272Z" fill="#016DFF"/>
<path d="M30.7632 49.2986C30.7632 37.3774 45.4468 23.0002 50.0632 23.0002C54.6797 23.0002 69.3633 37.3774 69.3633 49.2986C69.3633 61.2198 60.7224 70.8838 50.0632 70.8838C39.4041 70.8838 30.7632 61.2197 30.7632 49.2986Z" fill="#016DFF"/>
<path d="M6.33157 56.6272C6.33157 44.706 21.0152 30.3288 25.6316 30.3288C30.248 30.3288 44.9316 44.706 44.9316 56.6272C44.9316 68.5484 36.2907 78.2124 25.6316 78.2124C14.9725 78.2124 6.33157 68.5484 6.33157 56.6272Z" fill="#016DFF"/>
<path d="M3.29486 48.415C1.55606 48.4424 0.159297 49.8756 0.287172 51.6099C0.710742 57.3545 2.04292 62.9944 4.23566 68.2965C6.82743 74.5635 10.5707 80.2359 15.2518 84.9899C19.9329 89.744 25.4601 93.4864 31.5178 96.0037C37.5755 98.5209 44.0451 99.7636 50.5573 99.6609C57.0694 99.5581 63.4966 98.1119 69.4717 95.4048C75.4469 92.6977 80.853 88.7827 85.3815 83.8834C89.91 78.9841 93.4721 73.1964 95.8645 66.8507C97.8886 61.482 99.0419 55.803 99.2837 50.0479C99.3567 48.3104 97.9153 46.922 96.1765 46.9495L49.7357 47.6822L3.29486 48.415Z" fill="#016DFF"/>
</g>
<defs>
<clipPath id="clip0_1_679">
<rect width="100" height="100" fill="white"/>
</clipPath>
</defs>
</svg>
